<svg width="484" height="336" viewBox="0 0 484 336" fill="none" xmlns="http://www.w3.org/2000/svg">
<path d="M384 336L6 336C2.68628 336 2.34843e-07 333.314 5.24537e-07 330L2.88495e-05 5.99997C2.91392e-05 2.68625 2.68631 -3.33355e-05 6.00003 -3.30458e-05L384 0L384 336Z" fill="#17B31B" fill-opacity="0.1"/>
<path d="M383.5 335.5L6 335.5C2.96243 335.5 0.5 333.038 0.500001 330L0.500029 5.99997C0.500029 2.9624 2.96246 0.499967 6.00003 0.499967L383.5 0.5L383.5 335.5Z" stroke="#17B31B" stroke-opacity="0.5"/>
<g filter="url(#filter0_d_9972_37347)">
<path d="M32 38C32 34.6863 34.6863 32 38 32L458 32C461.314 32 464 34.6863 464 38L464 298C464 301.314 461.314 304 458 304L38 304C34.6863 304 32 301.314 32 298L32 38Z" fill="white"/>
</g>
<path d="M114.282 243.201C112.094 243.36 109.99 243.365 108 243.201H114.282C127.098 242.267 142.775 236.006 155.174 227.025C166.805 218.599 193.018 206.626 222.048 215.229C257.299 225.677 271.296 223.992 298.253 201.749C321.125 182.877 352.175 190.977 376.013 183.551C400.896 175.8 395.712 162.657 432 160.635V243.201H114.282Z" fill="url(#paint0_linear_9972_37347)" fill-opacity="0.3"/>
<path d="M127 242.326C140.672 243.449 139.709 237.539 154.247 227.025C165.895 218.599 192.148 206.626 221.223 215.229C256.529 225.677 270.547 223.992 297.545 201.749C320.453 182.877 351.55 190.977 375.424 183.551C400.346 175.8 393.656 162.657 430 160.635" stroke="#17B31B" stroke-width="2"/>
<path d="M71.4746 241.57C71.4746 240.175 70.4946 239.561 69.2906 239.31L68.5906 239.157V236.117C69.4726 236.284 70.1866 236.884 70.2706 237.902L71.3346 237.693C71.2086 236.354 70.1726 235.363 68.6326 235.182V233.578H67.6946V235.154C66.0846 235.28 64.9786 236.228 64.9786 237.665C64.9786 239.004 65.9446 239.617 67.1066 239.854L67.7366 239.994V243.146C66.7286 242.979 65.9166 242.337 65.8046 241.193L64.7266 241.416C64.8526 242.937 66.1266 243.899 67.6946 244.094V245.712H68.6326V244.122C70.3126 244.025 71.4746 243.062 71.4746 241.57ZM67.4006 238.878C66.6306 238.697 66.0846 238.376 66.0846 237.595C66.0846 236.758 66.7426 236.186 67.7366 236.075V238.962L67.4006 238.878ZM68.5906 243.188V240.189L69.0246 240.287C69.9066 240.468 70.4246 240.831 70.4246 241.612C70.4246 242.49 69.7106 243.104 68.5906 243.188Z" fill="#808080"/>
<path d="M76.401 238.669H74.455L74.595 235.963H79.117V234.973H73.573L73.363 239.659H76.317C77.591 239.659 78.431 240.273 78.431 241.486C78.431 242.7 77.535 243.495 76.205 243.495C74.861 243.495 73.867 242.63 73.867 241.082L72.803 241.291C72.817 243.313 74.273 244.499 76.191 244.499C78.179 244.499 79.481 243.258 79.481 241.472C79.481 239.659 78.263 238.669 76.401 238.669Z" fill="#808080"/>
<path d="M84.7797 234.792C82.4557 234.792 80.8877 236.758 80.8877 239.645C80.8877 242.546 82.4557 244.499 84.7797 244.499C87.1037 244.499 88.6577 242.546 88.6577 239.645C88.6577 236.758 87.1037 234.792 84.7797 234.792ZM84.7797 243.467C83.0997 243.467 82.0077 241.919 82.0077 239.645C82.0077 237.358 83.0997 235.81 84.7797 235.81C86.4457 235.81 87.5377 237.358 87.5377 239.645C87.5377 241.919 86.4457 243.467 84.7797 243.467Z" fill="#808080"/>
<path d="M93.0262 240.775L96.9463 237.442H95.5602L92.3542 240.231H91.7242V234.275H90.6602V244.318H91.7242V241.277H92.3403L95.9102 244.318H97.3942L93.0262 240.775Z" fill="#808080"/>
<path d="M71.4746 202.716C71.4746 201.322 70.4946 200.708 69.2906 200.457L68.5906 200.304V197.263C69.4726 197.43 70.1866 198.03 70.2706 199.048L71.3346 198.839C71.2086 197.5 70.1726 196.51 68.6326 196.329V194.725H67.6946V196.301C66.0846 196.426 64.9786 197.375 64.9786 198.811C64.9786 200.15 65.9446 200.764 67.1066 201.001L67.7366 201.14V204.292C66.7286 204.125 65.9166 203.483 65.8046 202.34L64.7266 202.563C64.8526 204.083 66.1266 205.046 67.6946 205.241V206.859H68.6326V205.269C70.3126 205.171 71.4746 204.209 71.4746 202.716ZM67.4006 200.025C66.6306 199.843 66.0846 199.522 66.0846 198.741C66.0846 197.905 66.7426 197.333 67.7366 197.221V200.108L67.4006 200.025ZM68.5906 204.334V201.336L69.0246 201.433C69.9066 201.615 70.4246 201.977 70.4246 202.758C70.4246 203.637 69.7106 204.251 68.5906 204.334Z" fill="#808080"/>
<path d="M75.295 196.119L72.397 197.821V198.881L74.903 197.249V205.464H75.981V196.119H75.295Z" fill="#808080"/>
<path d="M81.3776 199.815H79.4316L79.5716 197.11H84.0936V196.119H78.5496L78.3396 200.806H81.2936C82.5676 200.806 83.4076 201.419 83.4076 202.633C83.4076 203.846 82.5116 204.641 81.1816 204.641C79.8376 204.641 78.8436 203.776 78.8436 202.228L77.7796 202.437C77.7936 204.46 79.2496 205.645 81.1676 205.645C83.1556 205.645 84.4576 204.404 84.4576 202.619C84.4576 200.806 83.2396 199.815 81.3776 199.815Z" fill="#808080"/>
<path d="M89.7563 195.938C87.4323 195.938 85.8643 197.905 85.8643 200.792C85.8643 203.693 87.4323 205.645 89.7563 205.645C92.0803 205.645 93.6343 203.693 93.6343 200.792C93.6343 197.905 92.0803 195.938 89.7563 195.938ZM89.7563 204.613C88.0763 204.613 86.9843 203.065 86.9843 200.792C86.9843 198.504 88.0763 196.956 89.7563 196.956C91.4223 196.956 92.5143 198.504 92.5143 200.792C92.5143 203.065 91.4223 204.613 89.7563 204.613Z" fill="#808080"/>
<path d="M98.0028 201.921L101.923 198.588H100.537L97.3308 201.377H96.7008V195.422H95.6368V205.464H96.7008V202.423H97.3168L100.887 205.464H102.371L98.0028 201.921Z" fill="#808080"/>
<path d="M71.4746 163.864C71.4746 162.469 70.4946 161.855 69.2906 161.604L68.5906 161.451V158.41C69.4726 158.578 70.1866 159.178 70.2706 160.196L71.3346 159.987C71.2086 158.648 70.1726 157.657 68.6326 157.476V155.872H67.6946V157.448C66.0846 157.574 64.9786 158.522 64.9786 159.959C64.9786 161.298 65.9446 161.911 67.1066 162.148L67.7366 162.288V165.44C66.7286 165.273 65.9166 164.631 65.8046 163.487L64.7266 163.71C64.8526 165.231 66.1266 166.193 67.6946 166.388V168.006H68.6326V166.416C70.3126 166.319 71.4746 165.356 71.4746 163.864ZM67.4006 161.172C66.6306 160.991 66.0846 160.67 66.0846 159.889C66.0846 159.052 66.7426 158.48 67.7366 158.369V161.256L67.4006 161.172ZM68.5906 165.482V162.483L69.0246 162.581C69.9066 162.762 70.4246 163.125 70.4246 163.906C70.4246 164.784 69.7106 165.398 68.5906 165.482Z" fill="#808080"/>
<path d="M74.427 165.607L76.681 163.515C78.123 162.162 78.879 161.325 78.879 159.945C78.879 158.243 77.633 157.085 75.785 157.085C73.937 157.085 72.677 158.257 72.607 160.07L73.629 160.279C73.685 158.857 74.497 158.048 75.771 158.048C76.989 158.048 77.815 158.815 77.815 159.959C77.815 161.144 77.087 161.814 76.009 162.79L72.663 165.9V166.611H78.977V165.607H74.427Z" fill="#808080"/>
<path d="M83.6061 160.963H81.6601L81.8001 158.257H86.3221V157.267H80.7781L80.5681 161.953H83.5221C84.7961 161.953 85.6361 162.567 85.6361 163.78C85.6361 164.994 84.7401 165.789 83.4101 165.789C82.0661 165.789 81.0721 164.924 81.0721 163.376L80.0081 163.585C80.0221 165.607 81.4781 166.793 83.3961 166.793C85.3841 166.793 86.6861 165.551 86.6861 163.766C86.6861 161.953 85.4681 160.963 83.6061 160.963Z" fill="#808080"/>
<path d="M91.9848 157.085C89.6608 157.085 88.0928 159.052 88.0928 161.939C88.0928 164.84 89.6608 166.793 91.9848 166.793C94.3088 166.793 95.8628 164.84 95.8628 161.939C95.8628 159.052 94.3088 157.085 91.9848 157.085ZM91.9848 165.761C90.3048 165.761 89.2128 164.213 89.2128 161.939C89.2128 159.652 90.3048 158.104 91.9848 158.104C93.6508 158.104 94.7428 159.652 94.7428 161.939C94.7428 164.213 93.6508 165.761 91.9848 165.761Z" fill="#808080"/>
<path d="M100.231 163.069L104.151 159.735H102.765L99.5593 162.525H98.9293V156.569H97.8653V166.611H98.9293V163.571H99.5453L103.115 166.611H104.599L100.231 163.069Z" fill="#808080"/>
<path d="M118.898 262.258L116 263.966V265.03L118.506 263.392V271.638H119.584V262.258H118.898Z" fill="#808080"/>
<path d="M128.676 262.258H125.568V271.638H128.676C131.966 271.638 133.87 269.594 133.87 266.948C133.87 264.288 131.966 262.258 128.676 262.258ZM128.662 270.63H126.674V263.252H128.662C131.294 263.252 132.75 264.862 132.75 266.948C132.75 269.02 131.294 270.63 128.662 270.63Z" fill="#808080"/>
<path d="M142.205 268.012C142.135 265.954 140.679 264.568 138.817 264.568C136.913 264.568 135.247 265.996 135.247 268.208C135.247 270.406 136.913 271.82 138.747 271.82C140.301 271.82 141.505 271.064 142.051 269.622L141.099 269.398C140.609 270.504 139.726 270.882 138.747 270.882C137.556 270.882 136.381 269.958 136.283 268.404H142.205V268.012ZM138.817 265.506C139.979 265.506 140.931 266.248 141.127 267.606H136.325C136.535 266.248 137.697 265.506 138.817 265.506Z" fill="#808080"/>
<path d="M147.007 270.826C145.593 270.826 144.445 269.804 144.445 268.194C144.445 266.612 145.593 265.548 147.007 265.548C148.029 265.548 148.953 266.108 149.261 267.172L150.283 266.864C149.863 265.45 148.519 264.568 147.007 264.568C145.061 264.568 143.409 266.024 143.409 268.194C143.409 270.392 145.061 271.82 147.007 271.82C148.533 271.82 149.891 270.952 150.269 269.538L149.289 269.272C148.953 270.308 148.029 270.826 147.007 270.826Z" fill="#808080"/>
<path d="M203.181 262.44L200.283 264.148V265.212L202.789 263.574V271.82H203.867V262.44H203.181Z" fill="#808080"/>
<path d="M210.888 267.018C211.756 266.724 212.302 265.996 212.302 264.988C212.302 263.364 211.084 262.258 209.25 262.258C207.36 262.258 206.128 263.462 206.002 265.212L207.024 265.408C207.108 264.022 207.962 263.238 209.236 263.238C210.468 263.238 211.28 263.938 211.28 264.988C211.28 265.954 210.524 266.542 209.32 266.542H208.088V267.508H209.39C210.692 267.508 211.476 268.11 211.476 269.146C211.476 270.28 210.58 271.022 209.292 271.022C207.878 271.022 207.01 270.126 206.912 268.74L205.876 268.95C205.988 270.77 207.304 272.002 209.292 272.002C211.196 272.002 212.484 270.854 212.484 269.132C212.484 268.054 211.882 267.298 210.888 267.018Z" fill="#808080"/>
<path d="M221.162 262.44H218.054V271.82H221.162C224.452 271.82 226.356 269.776 226.356 267.13C226.356 264.47 224.452 262.44 221.162 262.44ZM221.148 270.812H219.16V263.434H221.148C223.78 263.434 225.236 265.044 225.236 267.13C225.236 269.202 223.78 270.812 221.148 270.812Z" fill="#808080"/>
<path d="M234.691 268.194C234.621 266.136 233.165 264.75 231.303 264.75C229.399 264.75 227.733 266.178 227.733 268.39C227.733 270.588 229.399 272.002 231.233 272.002C232.787 272.002 233.991 271.246 234.537 269.804L233.585 269.58C233.095 270.686 232.213 271.064 231.233 271.064C230.043 271.064 228.867 270.14 228.769 268.586H234.691V268.194ZM231.303 265.688C232.465 265.688 233.417 266.43 233.613 267.788H228.811C229.021 266.43 230.183 265.688 231.303 265.688Z" fill="#808080"/>
<path d="M239.493 271.008C238.079 271.008 236.931 269.986 236.931 268.376C236.931 266.794 238.079 265.73 239.493 265.73C240.515 265.73 241.439 266.29 241.747 267.354L242.769 267.046C242.349 265.632 241.005 264.75 239.493 264.75C237.547 264.75 235.895 266.206 235.895 268.376C235.895 270.574 237.547 272.002 239.493 272.002C241.019 272.002 242.377 271.134 242.755 269.72L241.775 269.454C241.439 270.49 240.515 271.008 239.493 271.008Z" fill="#808080"/>
<path d="M294.588 270.812L296.842 268.712C298.284 267.354 299.04 266.514 299.04 265.128C299.04 263.42 297.794 262.258 295.946 262.258C294.098 262.258 292.838 263.434 292.768 265.254L293.79 265.464C293.846 264.036 294.658 263.224 295.932 263.224C297.15 263.224 297.976 263.994 297.976 265.142C297.976 266.332 297.248 267.004 296.17 267.984L292.824 271.106V271.82H299.138V270.812H294.588Z" fill="#808080"/>
<path d="M303.767 266.15H301.821L301.961 263.434H306.483V262.44H300.939L300.729 267.144H303.683C304.957 267.144 305.797 267.76 305.797 268.978C305.797 270.196 304.901 270.994 303.571 270.994C302.227 270.994 301.233 270.126 301.233 268.572L300.169 268.782C300.183 270.812 301.639 272.002 303.557 272.002C305.545 272.002 306.847 270.756 306.847 268.964C306.847 267.144 305.629 266.15 303.767 266.15Z" fill="#808080"/>
<path d="M315.351 262.44H312.243V271.82H315.351C318.641 271.82 320.545 269.776 320.545 267.13C320.545 264.47 318.641 262.44 315.351 262.44ZM315.337 270.812H313.349V263.434H315.337C317.969 263.434 319.425 265.044 319.425 267.13C319.425 269.202 317.969 270.812 315.337 270.812Z" fill="#808080"/>
<path d="M328.879 268.194C328.809 266.136 327.353 264.75 325.491 264.75C323.587 264.75 321.921 266.178 321.921 268.39C321.921 270.588 323.587 272.002 325.421 272.002C326.975 272.002 328.179 271.246 328.725 269.804L327.773 269.58C327.283 270.686 326.401 271.064 325.421 271.064C324.231 271.064 323.055 270.14 322.957 268.586H328.879V268.194ZM325.491 265.688C326.653 265.688 327.605 266.43 327.801 267.788H322.999C323.209 266.43 324.371 265.688 325.491 265.688Z" fill="#808080"/>
<path d="M333.681 271.008C332.267 271.008 331.119 269.986 331.119 268.376C331.119 266.794 332.267 265.73 333.681 265.73C334.703 265.73 335.627 266.29 335.935 267.354L336.957 267.046C336.537 265.632 335.193 264.75 333.681 264.75C331.735 264.75 330.083 266.206 330.083 268.376C330.083 270.574 331.735 272.002 333.681 272.002C335.207 272.002 336.565 271.134 336.943 269.72L335.963 269.454C335.627 270.49 334.703 271.008 333.681 271.008Z" fill="#808080"/>
<path d="M390.739 265.758C389.577 265.758 388.485 266.346 388.009 267.256C387.967 266.136 388.149 264.848 388.947 263.98C389.353 263.532 389.941 263.238 390.669 263.238C391.649 263.238 392.363 263.644 392.629 264.526L393.693 264.316C393.315 262.986 392.167 262.258 390.711 262.258C389.703 262.258 388.849 262.65 388.233 263.28C387.309 264.232 386.959 265.66 386.959 267.382C386.959 270.294 388.331 272.002 390.655 272.002C392.643 272.002 393.945 270.644 393.945 268.838C393.945 267.074 392.727 265.758 390.739 265.758ZM390.641 270.994C389.395 270.994 388.387 270.126 388.387 268.866C388.387 267.676 389.283 266.682 390.641 266.682C391.929 266.682 392.853 267.606 392.853 268.824C392.853 270.042 391.929 270.994 390.641 270.994Z" fill="#808080"/>
<path d="M404.366 262.44V268.404C404.366 269.916 403.414 270.994 402 270.994C400.656 270.994 399.802 270.07 399.634 268.74L398.584 268.978C398.836 270.756 400.11 272.002 402 272.002C404.086 272.002 405.472 270.504 405.472 268.404V262.44H404.366Z" fill="#808080"/>
<path d="M413.364 264.918V266.024C412.748 265.212 411.768 264.75 410.62 264.75C408.786 264.75 407.176 266.192 407.176 268.376C407.176 270.56 408.786 272.002 410.62 272.002C411.768 272.002 412.748 271.54 413.364 270.728V271.82H414.428V264.918H413.364ZM410.788 271.05C409.36 271.05 408.212 270.014 408.212 268.376C408.212 266.724 409.36 265.688 410.788 265.688C412.09 265.688 413.364 266.724 413.364 268.376C413.364 270.014 412.09 271.05 410.788 271.05Z" fill="#808080"/>
<path d="M420.566 264.75C419.404 264.75 418.522 265.226 417.962 266.066V264.918H416.898V271.82H417.962V268.502C417.962 266.71 418.914 265.73 420.356 265.73C421.504 265.73 422.274 266.598 422.274 267.886V271.82H423.338V267.69C423.338 265.94 422.232 264.75 420.566 264.75Z" fill="#808080"/>
<path d="M322 191.518C322 193.713 320.213 195.499 318 195.499C315.787 195.499 314 193.713 314 191.518C314 189.323 315.787 187.537 318 187.537C320.213 187.537 322 189.323 322 191.518Z" fill="white" stroke="#17B31B" stroke-width="2"/>
<path d="M204 212.438C204 214.633 202.213 216.419 200 216.419C197.787 216.419 196 214.633 196 212.438C196 210.243 197.787 208.457 200 208.457C202.213 208.457 204 210.243 204 212.438Z" fill="white" stroke="#17B31B" stroke-width="2"/>
<path d="M127 242.326C127 244.521 125.213 246.307 123 246.307C120.787 246.307 119 244.521 119 242.326C119 240.131 120.787 238.345 123 238.345C125.213 238.345 127 240.131 127 242.326Z" fill="white" stroke="#17B31B" stroke-width="2"/>
<path d="M430 160.634C430 162.83 428.213 164.616 426 164.616C423.787 164.616 422 162.83 422 160.634C422 158.439 423.787 156.653 426 156.653C428.213 156.653 430 158.439 430 160.634Z" fill="white" stroke="#17B31B" stroke-width="2"/>
<path d="M75.5296 113.751C75.5296 111.493 74.1424 110.072 71.7774 109.56L71.0497 109.397V105.998C71.8229 106.371 72.4369 107.162 72.4141 108.443L75.4159 107.907C75.2568 105.439 73.5967 103.74 71.1634 103.251V100.62H68.6164V103.181C66.0012 103.53 64.2956 105.207 64.2956 107.651C64.2956 110.305 66.3423 111.399 68.1388 111.725L68.7301 111.842V115.497C67.8432 115.148 67.1155 114.38 67.0245 112.936L64 113.541C64.1592 116.172 66.2286 117.755 68.6164 118.221V120.875H71.1634V118.314C73.7331 117.965 75.5296 116.289 75.5296 113.751ZM67.3884 107.465C67.3884 106.743 67.8887 106.091 68.7301 105.812V108.908C67.8205 108.699 67.3884 108.21 67.3884 107.465ZM71.0497 115.637V112.331C72.255 112.61 72.6415 113.122 72.6415 113.867C72.6415 114.705 72.0503 115.381 71.0497 115.637Z" fill="#1A181E"/>
<path d="M82.0009 115.683L84.3432 113.332C86.5718 111.097 87.6633 109.63 87.6633 107.465C87.6633 104.578 85.5484 102.599 82.4784 102.599C79.3857 102.599 77.248 104.508 77.1116 107.581L79.9314 108.187C80.0679 106.208 80.9548 105.323 82.4329 105.323C83.7519 105.323 84.6843 106.231 84.6843 107.535C84.6843 109.281 83.4563 110.329 82.5239 111.283L77.3844 116.498V118.547H87.7543V115.683H82.0009Z" fill="#1A181E"/>
<path d="M93.8308 115.45V115.381H90.3741L89.0097 121.62H91.261L93.8308 115.45Z" fill="#1A181E"/>
<path d="M108.373 112.843H106.486V102.948H102.392L95.4109 112.494V115.404H103.484V118.547H106.486V115.404H108.373V112.843ZM98.7993 112.843L103.484 106.021V112.843H98.7993Z" fill="#1A181E"/>
<path d="M113.546 102.948L108.702 105.812V108.792L112.454 106.184V118.547H115.456V102.948H113.546Z" fill="#1A181E"/>
<path d="M122.212 115.45V115.381H118.756L117.391 121.62H119.643L122.212 115.45Z" fill="#1A181E"/>
<path d="M129.289 102.599C125.992 102.599 123.695 104.834 123.695 107.907C123.695 110.911 125.719 113.052 129.016 113.052C130.403 113.052 131.791 112.47 132.655 111.493C132.655 112.913 132.336 114.217 131.495 115.148C130.972 115.73 130.222 116.126 129.357 116.126C128.175 116.126 127.379 115.753 127.015 114.612L124.059 115.194C124.696 117.592 126.674 118.896 129.244 118.896C130.995 118.896 132.45 118.198 133.496 117.103C134.997 115.52 135.543 113.309 135.543 110.515C135.543 105.463 133.041 102.599 129.289 102.599ZM129.357 110.468C128.038 110.468 126.788 109.467 126.788 107.954C126.788 106.441 128.038 105.416 129.357 105.416C130.654 105.416 131.836 106.417 131.836 107.907C131.836 109.467 130.654 110.468 129.357 110.468Z" fill="#1A181E"/>
<path d="M145.92 110.654C147.467 109.956 148.308 108.582 148.308 106.883C148.308 104.322 146.193 102.599 143.032 102.599C139.848 102.599 137.734 104.322 137.734 106.883C137.734 108.606 138.575 109.956 140.121 110.654C138.302 111.33 137.256 112.727 137.256 114.333C137.256 117.034 139.576 118.896 143.032 118.896C146.466 118.896 148.763 117.034 148.763 114.333C148.763 112.75 147.74 111.33 145.92 110.654ZM142.987 105.137C144.146 105.137 145.261 105.812 145.261 107.116C145.261 108.466 144.146 109.141 142.987 109.141C141.827 109.141 140.804 108.489 140.804 107.162C140.804 105.812 141.85 105.137 142.987 105.137ZM142.987 116.265C141.736 116.265 140.667 115.567 140.667 114.17C140.667 112.727 141.759 112.028 142.987 112.028C144.215 112.028 145.397 112.727 145.397 114.123C145.397 115.544 144.215 116.265 142.987 116.265Z" fill="#1A181E"/>
<path d="M162.871 112.843H160.984V102.948H156.891L149.909 112.494V115.404H157.982V118.547H160.984V115.404H162.871V112.843ZM153.298 112.843L157.982 106.021V112.843H153.298Z" fill="#1A181E"/>
<path d="M166.174 115.078C165.128 115.078 164.377 115.916 164.377 116.871C164.377 117.872 165.128 118.64 166.174 118.64C167.22 118.64 167.97 117.872 167.97 116.871C167.97 115.916 167.22 115.078 166.174 115.078Z" fill="#1A181E"/>
<path d="M178.915 110.701C179.984 110.119 180.621 108.978 180.621 107.465C180.621 104.578 178.551 102.599 175.458 102.599C172.366 102.599 170.273 104.648 170.023 107.605L172.843 108.187C172.98 106.231 174.048 105.37 175.458 105.37C176.868 105.37 177.778 106.208 177.778 107.465C177.778 108.606 176.982 109.304 175.549 109.304H173.525V112.051H175.731C177.232 112.051 178.028 112.773 178.028 113.937C178.028 115.264 176.937 116.149 175.458 116.149C173.821 116.149 172.934 115.101 172.707 113.378L169.819 113.96C170.069 116.917 172.275 118.896 175.458 118.896C178.665 118.896 180.848 116.917 180.848 113.914C180.848 112.401 180.12 111.237 178.915 110.701Z" fill="#1A181E"/>
<path d="M189.451 102.599C185.539 102.599 182.901 105.905 182.901 110.748C182.901 115.613 185.539 118.896 189.451 118.896C193.362 118.896 196 115.613 196 110.748C196 105.905 193.362 102.599 189.451 102.599ZM189.451 115.986C187.358 115.986 186.039 113.844 186.039 110.748C186.039 107.651 187.358 105.509 189.451 105.509C191.543 105.509 192.862 107.651 192.862 110.748C192.862 113.844 191.543 115.986 189.451 115.986Z" fill="#1A181E"/>
<g clip-path="url(#clip0_9972_37347)">
<path fill-rule="evenodd" clip-rule="evenodd" d="M219.631 111.155C219.973 111.497 220.527 111.497 220.869 111.155C221.21 110.814 221.21 110.26 220.869 109.918L215.619 104.668C215.277 104.326 214.723 104.326 214.381 104.668L209.131 109.918C208.79 110.26 208.79 110.814 209.131 111.155C209.473 111.497 210.027 111.497 210.369 111.155L214.125 107.399L214.125 117.537C214.125 118.02 214.517 118.412 215 118.412C215.483 118.412 215.875 118.02 215.875 117.537L215.875 107.399L219.631 111.155Z" fill="#17B31B"/>
</g>
<path d="M228.338 104.838C225.746 104.838 224 106.566 224 108.924C224 111.21 225.584 112.884 228.176 112.884C229.454 112.884 230.696 112.308 231.362 111.354C231.398 112.632 231.128 113.928 230.3 114.846C229.832 115.35 229.166 115.692 228.356 115.692C227.258 115.692 226.484 115.296 226.16 114.288L224.306 114.648C224.81 116.43 226.322 117.402 228.284 117.402C229.616 117.402 230.75 116.88 231.56 116.052C232.748 114.828 233.18 113.046 233.18 110.868C233.18 107.034 231.308 104.838 228.338 104.838ZM228.374 111.3C227.024 111.3 225.926 110.31 225.926 108.942C225.926 107.574 227.024 106.566 228.374 106.566C229.688 106.566 230.804 107.52 230.804 108.906C230.804 110.274 229.76 111.3 228.374 111.3Z" fill="#17B31B"/>
<path d="M240.008 109.338C238.73 109.338 237.488 109.932 236.804 110.868C236.768 109.59 237.038 108.294 237.866 107.394C238.334 106.89 239.018 106.53 239.828 106.53C240.908 106.53 241.7 106.944 242.006 107.952L243.86 107.592C243.374 105.81 241.844 104.838 239.9 104.838C238.55 104.838 237.434 105.36 236.624 106.188C235.418 107.412 234.986 109.176 234.986 111.372C234.986 115.188 236.858 117.402 239.846 117.402C242.42 117.402 244.166 115.674 244.166 113.316C244.166 111.012 242.582 109.338 240.008 109.338ZM239.792 115.674C238.496 115.674 237.362 114.72 237.362 113.334C237.362 111.966 238.424 110.94 239.792 110.94C241.142 110.94 242.24 111.912 242.24 113.298C242.24 114.666 241.16 115.674 239.792 115.674Z" fill="#17B31B"/>
<path d="M248.871 104.838C247.269 104.838 245.883 105.954 245.883 107.736C245.883 109.464 247.269 110.616 248.871 110.616C250.473 110.616 251.859 109.464 251.859 107.736C251.859 105.954 250.473 104.838 248.871 104.838ZM248.727 117.15L257.655 105.09H256.377L247.449 117.15H248.727ZM248.871 106.134C249.663 106.134 250.437 106.728 250.437 107.718C250.437 108.726 249.663 109.32 248.871 109.32C248.079 109.32 247.305 108.726 247.305 107.718C247.305 106.728 248.079 106.134 248.871 106.134ZM256.395 111.624C254.793 111.624 253.407 112.74 253.407 114.504C253.407 116.25 254.793 117.402 256.395 117.402C257.997 117.402 259.383 116.25 259.383 114.504C259.383 112.74 257.997 111.624 256.395 111.624ZM256.395 112.902C257.187 112.902 257.961 113.514 257.961 114.504C257.961 115.494 257.187 116.088 256.395 116.088C255.603 116.088 254.829 115.494 254.829 114.504C254.829 113.514 255.603 112.902 256.395 112.902Z" fill="#17B31B"/>
<path d="M73.6324 70.2798H64.4004V71.4158H68.3844V80.9998H69.6644V71.4158H73.6324V70.2798Z" fill="#4D4D4D"/>
<path d="M79.9793 70.0718C76.8593 70.0718 74.4273 72.5358 74.4273 75.6398C74.4273 78.7598 76.8593 81.2078 79.9793 81.2078C83.0833 81.2078 85.5153 78.7598 85.5153 75.6398C85.5153 72.5358 83.0833 70.0718 79.9793 70.0718ZM79.9793 80.0078C77.5793 80.0078 75.7073 78.1198 75.7073 75.6398C75.7073 73.1758 77.5793 71.2558 79.9793 71.2558C82.3633 71.2558 84.2353 73.1758 84.2353 75.6398C84.2353 78.1198 82.3633 80.0078 79.9793 80.0078Z" fill="#4D4D4D"/>
<path d="M95.5386 70.2798H86.3066V71.4158H90.2906V80.9998H91.5706V71.4158H95.5386V70.2798Z" fill="#4D4D4D"/>
<path d="M101.113 70.2798H99.9448L95.1448 80.9998H96.5048L97.7048 78.2798H103.353L104.553 80.9998H105.913L101.113 70.2798ZM98.2008 77.1438L100.537 71.8478L102.857 77.1438H98.2008Z" fill="#4D4D4D"/>
<path d="M108.751 79.8478V70.2798H107.487V80.9998H114.895V79.8478H108.751Z" fill="#4D4D4D"/>
<path d="M124.461 70.0718C122.173 70.0718 120.653 71.3038 120.653 73.1438C120.653 74.8558 121.853 75.5758 123.229 75.8798L125.645 76.4078C126.845 76.6798 127.389 77.0798 127.389 78.0878C127.389 79.2718 126.413 80.0878 124.781 80.0878C123.117 80.0878 121.885 79.2398 121.645 77.7358L120.317 78.0078C120.573 80.0398 122.397 81.2078 124.669 81.2078C127.069 81.2078 128.653 79.9758 128.653 78.0238C128.653 76.3118 127.437 75.5598 125.949 75.2398L123.613 74.7118C122.605 74.5038 121.997 74.0718 121.997 73.1118C121.997 71.9598 122.989 71.1758 124.429 71.1758C125.901 71.1758 126.973 72.0078 127.213 73.3038L128.477 73.0158C128.109 71.2558 126.605 70.0718 124.461 70.0718Z" fill="#4D4D4D"/>
<path d="M135.644 70.2798H134.476L129.676 80.9998H131.036L132.236 78.2798H137.884L139.084 80.9998H140.444L135.644 70.2798ZM132.732 77.1438L135.068 71.8478L137.388 77.1438H132.732Z" fill="#4D4D4D"/>
<path d="M143.282 79.8478V70.2798H142.018V80.9998H149.426V79.8478H143.282Z" fill="#4D4D4D"/>
<path d="M152.657 79.8478V76.1838H158.737V75.0478H152.657V71.4158H159.201V70.2798H151.393V80.9998H159.217V79.8478H152.657Z" fill="#4D4D4D"/>
<path d="M165.148 70.0718C162.86 70.0718 161.34 71.3038 161.34 73.1438C161.34 74.8558 162.54 75.5758 163.916 75.8798L166.332 76.4078C167.532 76.6798 168.076 77.0798 168.076 78.0878C168.076 79.2718 167.1 80.0878 165.468 80.0878C163.804 80.0878 162.572 79.2398 162.332 77.7358L161.004 78.0078C161.26 80.0398 163.084 81.2078 165.356 81.2078C167.756 81.2078 169.34 79.9758 169.34 78.0238C169.34 76.3118 168.124 75.5598 166.636 75.2398L164.3 74.7118C163.292 74.5038 162.684 74.0718 162.684 73.1118C162.684 71.9598 163.676 71.1758 165.116 71.1758C166.588 71.1758 167.66 72.0078 167.9 73.3038L169.164 73.0158C168.796 71.2558 167.292 70.0718 165.148 70.0718Z" fill="#4D4D4D"/>
<path d="M341.876 70.6401L338.564 72.5921V73.8081L341.428 71.9361V81.3601H342.66V70.6401H341.876Z" fill="#4D4D4D"/>
<path d="M353.051 70.6401H349.499V81.3601H353.051C356.811 81.3601 358.987 79.0241 358.987 76.0001C358.987 72.9601 356.811 70.6401 353.051 70.6401ZM353.035 80.2081H350.763V71.7761H353.035C356.043 71.7761 357.707 73.6161 357.707 76.0001C357.707 78.3681 356.043 80.2081 353.035 80.2081Z" fill="#4D4D4D"/>
<path d="M368.512 77.2161C368.432 74.8641 366.768 73.2801 364.64 73.2801C362.464 73.2801 360.56 74.9121 360.56 77.4401C360.56 79.9521 362.464 81.5681 364.56 81.5681C366.336 81.5681 367.712 80.7041 368.336 79.0561L367.248 78.8001C366.688 80.0641 365.68 80.4961 364.56 80.4961C363.2 80.4961 361.856 79.4401 361.744 77.6641H368.512V77.2161ZM364.64 74.3521C365.968 74.3521 367.056 75.2001 367.28 76.7521H361.792C362.032 75.2001 363.36 74.3521 364.64 74.3521Z" fill="#4D4D4D"/>
<path d="M374.001 80.4321C372.385 80.4321 371.073 79.2641 371.073 77.4241C371.073 75.6161 372.385 74.4001 374.001 74.4001C375.169 74.4001 376.225 75.0401 376.577 76.2561L377.745 75.9041C377.265 74.2881 375.729 73.2801 374.001 73.2801C371.777 73.2801 369.889 74.9441 369.889 77.4241C369.889 79.9361 371.777 81.5681 374.001 81.5681C375.745 81.5681 377.297 80.5761 377.729 78.9601L376.609 78.6561C376.225 79.8401 375.169 80.4321 374.001 80.4321Z" fill="#4D4D4D"/>
<path d="M388.579 76.7361H383.411V77.8081H388.579V76.7361Z" fill="#4D4D4D"/>
<path d="M394.744 74.4321C393.416 74.4321 392.168 75.1041 391.624 76.1441C391.576 74.8641 391.784 73.3921 392.696 72.4001C393.16 71.8881 393.832 71.5521 394.664 71.5521C395.784 71.5521 396.6 72.0161 396.904 73.0241L398.12 72.7841C397.688 71.2641 396.376 70.4321 394.712 70.4321C393.56 70.4321 392.584 70.8801 391.88 71.6001C390.824 72.6881 390.424 74.3201 390.424 76.2881C390.424 79.6161 391.992 81.5681 394.648 81.5681C396.92 81.5681 398.408 80.0161 398.408 77.9521C398.408 75.9361 397.016 74.4321 394.744 74.4321ZM394.632 80.4161C393.208 80.4161 392.056 79.4241 392.056 77.9841C392.056 76.6241 393.08 75.4881 394.632 75.4881C396.104 75.4881 397.16 76.5441 397.16 77.9361C397.16 79.3281 396.104 80.4161 394.632 80.4161Z" fill="#4D4D4D"/>
<path d="M410.318 70.6401V77.4561C410.318 79.1841 409.23 80.4161 407.614 80.4161C406.078 80.4161 405.102 79.3601 404.91 77.8401L403.71 78.1121C403.998 80.1441 405.454 81.5681 407.614 81.5681C409.998 81.5681 411.582 79.8561 411.582 77.4561V70.6401H410.318Z" fill="#4D4D4D"/>
<path d="M420.601 73.4721V74.7361C419.897 73.8081 418.777 73.2801 417.465 73.2801C415.369 73.2801 413.529 74.9281 413.529 77.4241C413.529 79.9201 415.369 81.5681 417.465 81.5681C418.777 81.5681 419.897 81.0401 420.601 80.1121V81.3601H421.817V73.4721H420.601ZM417.657 80.4801C416.025 80.4801 414.713 79.2961 414.713 77.4241C414.713 75.5361 416.025 74.3521 417.657 74.3521C419.145 74.3521 420.601 75.5361 420.601 77.4241C420.601 79.2961 419.145 80.4801 417.657 80.4801Z" fill="#4D4D4D"/>
<path d="M428.832 73.2801C427.504 73.2801 426.496 73.8241 425.856 74.7841V73.4721H424.64V81.3601H425.856V77.5681C425.856 75.5201 426.944 74.4001 428.592 74.4001C429.904 74.4001 430.784 75.3921 430.784 76.8641V81.3601H432V76.6401C432 74.6401 430.736 73.2801 428.832 73.2801Z" fill="#4D4D4D"/>
<defs>
<filter id="filter0_d_9972_37347" x="12" y="16" width="472" height="312" filterUnits="userSpaceOnUse" color-interpolation-filters="sRGB">
<feFlood flood-opacity="0" result="BackgroundImageFix"/>
<feColorMatrix in="SourceAlpha" type="matrix" values="0 0 0 0 0 0 0 0 0 0 0 0 0 0 0 0 0 0 127 0" result="hardAlpha"/>
<feOffset dy="4"/>
<feGaussianBlur stdDeviation="10"/>
<feColorMatrix type="matrix" values="0 0 0 0 0.596078 0 0 0 0 0.596078 0 0 0 0 0.596078 0 0 0 0.2 0"/>
<feBlend mode="normal" in2="BackgroundImageFix" result="effect1_dropShadow_9972_37347"/>
<feBlend mode="normal" in="SourceGraphic" in2="effect1_dropShadow_9972_37347" result="shape"/>
</filter>
<linearGradient id="paint0_linear_9972_37347" x1="270" y1="160.635" x2="270" y2="243.322" gradientUnits="userSpaceOnUse">
<stop stop-color="#17B31B"/>
<stop offset="1" stop-color="#17B31B" stop-opacity="0"/>
</linearGradient>
<clipPath id="clip0_9972_37347">
<rect width="14" height="14" fill="white" transform="translate(222 104.12) rotate(90)"/>
</clipPath>
</defs>
</svg>
